<svg xmlns="http://www.w3.org/2000/svg">
  <symbol id="termico" viewBox="0 0 120 100">
    <circle cx="60" cy="50" r="46" fill="#fff1ed"/>
    <g fill="none" stroke="#ad605c" stroke-width="3" stroke-linecap="round" stroke-linejoin="round">
      <path d="M33 22v38a13 13 0 1 0 16 0V22a8 8 0 0 0-16 0Z" fill="#fff"/>
      <path d="M41 32v36"/><circle cx="41" cy="72" r="5" fill="#e89991"/>
      <path d="M65 68c-9-12 2-26 12-15 10-11 21 3 12 15L77 80Z" fill="#f3b1a8"/>
      <path d="M70 25v10m10-14v14m10-10v10"/>
    </g>
  </symbol>
  <symbol id="monitor" viewBox="0 0 120 100">
    <circle cx="60" cy="50" r="46" fill="#f0f3ff"/>
    <rect x="20" y="22" width="80" height="53" rx="9" fill="#fff" stroke="#7989ae" stroke-width="3"/>
    <rect x="27" y="29" width="66" height="35" rx="4" fill="#263a50"/>
    <path d="M31 48h13l6-10 8 20 8-27 8 17h15" fill="none" stroke="#8fddc5" stroke-width="3" stroke-linejoin="round"/>
    <path d="M50 76v9m20-9v9M42 86h36" stroke="#7989ae" stroke-width="3" stroke-linecap="round"/>
  </symbol>
  <symbol id="peso" viewBox="0 0 120 100">
    <circle cx="60" cy="50" r="46" fill="#eaf7f2"/>
    <path d="M22 54q38 18 76 0l-6 12H28Z" fill="#fff" stroke="#648c8b" stroke-width="3"/>
    <rect x="32" y="68" width="56" height="18" rx="5" fill="#a8d8cb" stroke="#648c8b" stroke-width="2"/>
    <rect x="49" y="72" width="22" height="9" rx="2" fill="#fff"/>
    <ellipse cx="55" cy="45" rx="21" ry="13" fill="#f5d1bb" stroke="#aa8876" stroke-width="2"/>
    <circle cx="82" cy="35" r="13" fill="#f5d1bb" stroke="#aa8876" stroke-width="2"/>
    <path d="M76 36h1m9 0h1M52 34l-5-8m-2 21-12-3" stroke="#aa8876" stroke-width="2" stroke-linecap="round"/>
  </symbol>
  <symbol id="alerta" viewBox="0 0 120 100">
    <circle cx="60" cy="50" r="46" fill="#fff9df"/>
    <path d="m60 18 39 64H21Z" fill="#fff" stroke="#c59d42" stroke-width="3" stroke-linejoin="round"/>
    <path d="M60 40v20" stroke="#c59d42" stroke-width="5" stroke-linecap="round"/>
    <circle cx="60" cy="70" r="3" fill="#c59d42"/>
  </symbol>
</svg>
